#!OML:ASF F:\VICON\USERDATA\INSTALL\rory3\rory3.ASF
:FULLY-SPECIFIED
:DEGREES
225
root 0.80862 17.3564 -17.6388 8.22589 1.27765 -8.21853
lowerback -9.19887 0.0813412 5.38507
upperback -4.43647 -0.369872 2.94611
thorax 0.529201 -0.229767 -0.0109071
lowerneck -13.5432 -2.95326 -7.0324
upperneck 26.0634 -3.69897 4.56385
head 10.8469 -1.84728 2.35108
rclavicle -2.35125e-015 3.75206e-015
rhumerus -42.2017 3.60439 -85.2353
rradius 33.8754
rwrist 1.63206
rhand -23.6991 -49.4849
rfingers 7.12502
rthumb 2.76794 -79.4466
lclavicle -2.35125e-015 3.75206e-015
lhumerus -40.0345 -5.11498 88.1906
lradius 28.8073
lwrist 6.61617
lhand -33.385 -27.7021
lfingers 7.12502
lthumb -6.58592 2.17548
rfemur -25.3243 10.43 32.6123
rtibia 33.2638
rfoot -12.0684 -10.6689
rtoes 6.92834
lfemur -27.5871 3.39206 -11.7053
ltibia 73.7122
lfoot -5.75226 0.780512
ltoes -15.1366
226
root 0.803686 17.3498 -17.5312 8.09048 1.7103 -8.18145
lowerback -9.48963 0.0287903 5.39887
upperback -3.84853 -0.495821 2.91373
thorax 1.29553 -0.270083 -0.0675592
lowerneck -14.3854 -3.11303 -6.89362
upperneck 25.8217 -3.85221 4.41805
head 10.9281 -1.90756 2.24295
rclavicle 1.40081e-014 2.10277e-014
rhumerus -40.7829 3.73287 -85.2299
rradius 33.7084
rwrist 1.62099
rhand -28.4008 -44.5338
rfingers 7.12502
rthumb -1.77297 -74.5062
lclavicle 1.40081e-014 2.10277e-014
lhumerus -39.3498 -4.8534 87.8518
lradius 28.6457
lwrist 6.84789
lhand -33.4851 -26.8852
lfingers 7.12502
lthumb -6.68253 2.98937
rfemur -24.9584 10.0663 32.7485
rtibia 33.4313
rfoot -12.5073 -10.9215
rtoes 5.6496
lfemur -28.747 2.89301 -11.8593
ltibia 73.7843
lfoot -6.575 1.41345
ltoes -14.3248
227
root 0.798774 17.3406 -17.4257 7.97849 1.70415 -8.19864
lowerback -8.89185 0.109944 5.42909
upperback -3.98286 -0.335202 2.88667
thorax 0.832834 -0.201462 -0.0946877
lowerneck -14.3161 -3.19022 -7.01404
upperneck 25.9055 -3.97806 4.5613
head 10.9601 -1.96071 2.29975
rclavicle 2.43424e-015 -2.38588e-014
rhumerus -40.7089 3.91886 -85.2959
rradius 33.8045
rwrist 1.81158
rhand -19.942 -53.1967
rfingers 7.12502
rthumb 6.39583 -83.0801
lclavicle 2.43424e-015 -2.38588e-014
lhumerus -39.8739 -4.7237 87.6808
lradius 28.696
lwrist 7.45082
lhand -33.3959 -26.8736
lfingers 7.12502
lthumb -6.59642 3.0037
rfemur -24.6601 9.92767 32.9179
rtibia 33.72
rfoot -13.0162 -11.4757
rtoes 2.80936
lfemur -29.9088 2.63425 -12.0348
ltibia 73.7393
lfoot -7.40715 2.21957
ltoes -13.7133
228
root 0.800019 17.3254 -17.3011 7.70108 2.11236 -8.16514
lowerback -9.02979 -0.0417376 5.41991
upperback -3.50986 -0.574748 2.97041
thorax 1.39179 -0.302874 -0.0279816
lowerneck -14.856 -3.25751 -7.35846
upperneck 25.7249 -3.9949 4.77645
head 11.014 -1.9673 2.42754
rclavicle 1.45299e-014 -1.09332e-015
rhumerus -39.7297 4.41417 -85.3449
rradius 33.9537
rwrist 1.74014
rhand -26.2406 -46.3711
rfingers 7.12502
rthumb 0.313397 -76.3506
lclavicle 1.45299e-014 -1.09332e-015
lhumerus -39.5133 -4.2189 87.4621
lradius 28.5891
lwrist 7.91937
lhand -32.9956 -26.8545
lfingers 7.12502
lthumb -6.21 3.03445
rfemur -24.0015 9.6389 33.086
rtibia 34.0303
rfoot -13.7521 -12.5749
rtoes 1.24414
lfemur -30.7721 1.80393 -12.2253
ltibia 73.49
lfoot -8.42704 3.15656
ltoes -12.9111
229
root 0.796872 17.2941 -17.2226 8.3008 1.50049 -8.35145
lowerback -8.93943 0.315872 5.84128
upperback -4.38757 -0.0741824 2.78992
thorax 0.445153 -0.0908204 -0.399291
lowerneck -12.3449 -3.14107 -7.36273
upperneck 25.1651 -4.07598 5.06409
head 10.3242 -2.0043 2.53654
rclavicle -2.43573e-014 4.34096e-014
rhumerus -40.9888 4.58743 -85.8925
rradius 34.3861
rwrist 0.990752
rhand -29.0894 -40.7177
rfingers 7.12502
rthumb -2.43808 -70.6835
lclavicle -2.43573e-014 4.34096e-014
lhumerus -41.3567 -4.55796 87.2431
lradius 28.8386
lwrist 8.2936
lhand -32.5955 -24.7793
lfingers 7.12502
lthumb -5.82366 5.12063
rfemur -24.4731 9.75561 33.2533
rtibia 34.3736
rfoot -14.2968 -12.1362
rtoes 1.66451
lfemur -32.7071 2.18154 -12.2949
ltibia 73.3344
lfoot -9.40975 3.79871
ltoes -11.3714
230
root 0.791205 17.2746 -17.129 8.30317 1.75066 -8.54191
lowerback -8.60481 0.246588 6.03108
upperback -3.91257 -0.182186 2.92053
thorax 0.748705 -0.132081 -0.380671
lowerneck -14.434 -3.26042 -7.48941
upperneck 25.592 -4.07978 5.09521
head 10.8963 -1.98545 2.55635
rclavicle -1.09506e-015 8.41574e-015
rhumerus -39.4748 5.13147 -85.8587
rradius 34.3438
rwrist 1.15558
rhand -25.8444 -46.7014
rfingers 7.12502
rthumb 0.69603 -76.68
lclavicle -1.09506e-015 8.41574e-015
lhumerus -40.5525 -4.26428 87.0792
lradius 28.922
lwrist 8.533
lhand -34.042 -28.6342
lfingers 7.12502
lthumb -7.22013 1.22262
rfemur -24.23 9.72044 33.5836
rtibia 34.6017
rfoot -14.9142 -11.9508
rtoes 2.99511
lfemur -34.0439 1.75403 -12.1539
ltibia 72.9018
lfoot -10.3165 4.33693
ltoes -9.78911
231
root 0.790228 17.2601 -17.0267 8.28221 1.87355 -8.82491
lowerback -8.31633 0.339889 6.41559
upperback -4.22083 -0.0421378 2.90807
thorax 0.272731 -0.0830291 -0.594777
lowerneck -13.484 -3.2514 -7.42551
upperneck 25.358 -4.15051 5.11046
head 10.6262 -2.02243 2.54632
rclavicle 2.94062e-015 -3.27622e-014
rhumerus -39.7607 4.90481 -85.7208
rradius 34.8282
rwrist 1.7773
rhand -25.7075 -48.4065
rfingers 7.12502
rthumb 0.828242 -78.3846
lclavicle 2.94062e-015 -3.27622e-014
lhumerus -41.4587 -4.47999 86.9836
lradius 29.0764
lwrist 8.7731
lhand -34.4989 -29.1204
lfingers 7.12502
lthumb -7.66117 0.720805
rfemur -23.8899 9.77924 33.9918
rtibia 34.7663
rfoot -15.4246 -11.7787
rtoes 4.14975
lfemur -35.3016 1.37391 -11.9508
ltibia 72.3293
lfoot -11.1499 4.84492
ltoes -6.6231
232
root 0.796536 17.2615 -16.8953 8.36089 1.36077 -8.94116
lowerback -8.7258 0.702948 6.70837
upperback -4.00788 0.367356 2.77091
thorax 0.744026 0.131754 -0.861266
lowerneck -13.5795 -3.37615 -7.14964
upperneck 25.2625 -4.35492 4.99638
head 10.615 -2.10058 2.42818
rclavicle 9.60378e-015 5.26282e-014
rhumerus -39.2182 4.70409 -85.772
rradius 34.7157
rwrist 2.15738
rhand -23.4002 -50.0852
rfingers 7.12502
rthumb 3.05663 -80.043
lclavicle 9.60378e-015 5.26282e-014
lhumerus -41.455 -4.73574 86.7836
lradius 28.9917
lwrist 8.87738
lhand -34.523 -29.1623
lfingers 7.12502
lthumb -7.68436 0.678103
rfemur -23.471 9.81641 34.1657
rtibia 34.8274
rfoot -15.7017 -11.3318
rtoes 4.22746
lfemur -36.1737 1.45924 -12.0502
ltibia 71.4761
lfoot -11.4378 5.33885
ltoes -7.0878
233
root 0.799109 17.2507 -16.7803 8.56492 1.03312 -9.03719
lowerback -8.9057 0.937514 6.93785
upperback -3.73901 0.626344 2.71347
thorax 1.14144 0.273465 -1.02038
lowerneck -14.5075 -3.53191 -7.11262
upperneck 25.4456 -4.53409 5.0243
head 10.8782 -2.16169 2.39979
rclavicle 1.97232e-015 -1.65488e-014
rhumerus -38.3036 4.80443 -85.8185
rradius 35.0094
rwrist 1.9723
rhand -25.1647 -47.9551
rfingers 7.12502
rthumb 1.35254 -77.9306
lclavicle 1.97232e-015 -1.65488e-014
lhumerus -41.2409 -4.69998 86.5795
lradius 29.0616
lwrist 8.74819
lhand -34.2711 -30.5185
lfingers 7.12502
lthumb -7.44121 -0.669376
rfemur -23.2713 9.72124 34.3054
rtibia 34.9016
rfoot -15.9942 -11.0325
rtoes 4.09311
lfemur -37.2713 1.37909 -12.1104
ltibia 70.5275
lfoot -12.1297 5.76808
ltoes -5.8553
234
root 0.797934 17.2197 -16.6844 8.696 0.8432 -9.23965
lowerback -8.69759 1.06911 7.20506
upperback -3.96772 0.813764 2.74621
thorax 0.802045 0.350772 -1.1207
lowerneck -13.8088 -3.52269 -7.34596
upperneck 25.2581 -4.57149 5.27288
head 10.686 -2.18204 2.52964
rclavicle -4.92924e-015 1.92821e-014
rhumerus -38.4644 4.92993 -85.8153
rradius 35.4754
rwrist 2.24397
rhand -25.3383 -47.6891
rfingers 7.12502
rthumb 1.18479 -77.6656
lclavicle -4.92924e-015 1.92821e-014
lhumerus -42.041 -4.67255 86.5113
lradius 29.379
lwrist 8.69937
lhand -33.6988 -31.6349
lfingers 7.12502
lthumb -6.88885 -1.76695
rfemur -23.0036 9.75755 34.568
rtibia 34.9888
rfoot -16.6315 -10.8215
rtoes 4.09943
lfemur -38.438 1.25717 -11.993
ltibia 69.5048
lfoot -12.6221 6.30426
ltoes -6.00422
235
root 0.798007 17.1981 -16.5787 8.71574 1.19938 -9.2322
lowerback -8.612 0.933402 7.2718
upperback -4.32553 0.660583 2.80384
thorax 0.369672 0.255015 -1.11529
lowerneck -12.4379 -3.38385 -7.6057
upperneck 24.9343 -4.41904 5.34741
head 10.2964 -2.14864 2.6311
rclavicle -7.00716e-015 -5.46658e-015
rhumerus -38.9867 5.43884 -85.9543
rradius 35.7145
rwrist 2.11579
rhand -24.834 -48.4349
rfingers 7.12502
rthumb 1.67188 -78.4081
lclavicle -7.00716e-015 -5.46658e-015
lhumerus -43.1496 -4.49867 86.5154
lradius 29.6359
lwrist 8.80354
lhand -33.4425 -31.527
lfingers 7.12502
lthumb -6.64141 -1.65115
rfemur -22.661 9.54579 34.6788
rtibia 35.1324
rfoot -17.236 -11.0378
rtoes 4.42944
lfemur -39.4691 0.560956 -12.0011
ltibia 68.2788
lfoot -13.5991 6.70035
ltoes -7.80558
236
root 0.8029 17.1898 -16.4654 8.85935 0.949596 -9.20896
lowerback -8.26422 0.973673 7.37768
upperback -3.97034 0.716851 2.83739
thorax 0.552851 0.294 -1.13657
lowerneck -14.6181 -3.47937 -7.65953
upperneck 25.5059 -4.35229 5.18967
head 10.9284 -2.11028 2.57853
rclavicle 5.54733e-015 -1.59152e-014
rhumerus -37.6383 5.85404 -85.8888
rradius 35.7845
rwrist 2.09921
rhand -24.9099 -47.7173
rfingers 7.12502
rthumb 1.59859 -77.6911
lclavicle 5.54733e-015 -1.59152e-014
lhumerus -42.4657 -4.11097 86.3854
lradius 29.5748
lwrist 8.88363
lhand -33.8531 -31.3488
lfingers 7.12502
lthumb -7.03777 -1.48577
rfemur -22.3534 9.5156 34.6691
rtibia 35.154
rfoot -17.4377 -11.0537
rtoes 5.24543
lfemur -40.3206 0.296674 -12.0905
ltibia 66.8388
lfoot -12.7899 6.77647
ltoes -1.19016
237
root 0.790163 17.1795 -16.3774 9.25784 0.987294 -9.22374
lowerback -8.6525 1.05665 7.26932
upperback -4.14673 0.807835 2.81171
thorax 0.589256 0.338187 -1.09081
lowerneck -13.5055 -3.4665 -7.62961
upperneck 24.9344 -4.42644 5.26776
head 10.5046 -2.14611 2.59459
rclavicle -1.24209e-014 1.00635e-014
rhumerus -37.5844 5.68836 -85.8813
rradius 36.1975
rwrist 2.10817
rhand -25.0414 -47.3142
rfingers 7.12502
rthumb 1.47158 -77.2889
lclavicle -1.24209e-014 1.00635e-014
lhumerus -42.961 -4.32909 86.3716
lradius 29.6217
lwrist 8.97295
lhand -34.5116 -31.1193
lfingers 7.12502
lthumb -7.6734 -1.27856
rfemur -22.3734 9.68925 34.7363
rtibia 35.0297
rfoot -17.4969 -11.3976
rtoes 5.83931
lfemur -41.5631 0.0419231 -11.9813
ltibia 65.2703
lfoot -13.7855 7.00487
ltoes -5.65485
